<?xml version="1.0" encoding="UTF-8"?>
<svg xmlns="http://www.w3.org/2000/svg" xmlns:xlink="http://www.w3.org/1999/xlink" width="50pt" height="50pt" viewBox="0 0 50 50" version="1.1">
<g id="surface21630985">
<path style="fill-rule:nonzero;fill:rgb(100%,100%,100%);fill-opacity:1;stroke-width:10;stroke-linecap:butt;stroke-linejoin:round;stroke:rgb(100%,100%,100%);stroke-opacity:1;stroke-miterlimit:10;" d="M 165.117725 47.592923 L 165.117725 143.034722 C 165.117725 149.632606 160.439484 154.424603 154.012235 154.424603 C 151.751323 154.424603 149.433532 153.827381 147.12996 152.661376 L 144.485119 151.324735 L 144.485119 151.353175 L 68.794312 113.002976 L 68.794312 143.034722 C 68.794312 149.860119 64.244048 154.794312 57.958995 154.794312 C 56.010913 154.794312 54.062831 154.296627 52.157407 153.329696 L 14.660384 134.36078 C 10.138558 132.071429 6.882275 126.739087 6.882275 121.662698 L 6.882275 28.595569 C 6.882275 22.438492 11.205026 17.80291 16.935516 17.80291 C 18.698743 17.80291 20.47619 18.243717 22.196759 19.125331 L 23.50496 19.765212 C 23.51918 19.779431 23.533399 19.779431 23.533399 19.793651 L 64.855489 40.696429 C 66.092593 41.33631 67.144841 42.303241 67.898479 43.540344 L 77.667328 62.651455 L 95.783069 32.847222 L 101.854828 22.83664 C 103.973545 19.367063 107.855489 17.205688 111.979167 17.205688 C 112.903439 17.205688 113.841931 17.319444 114.751984 17.546958 C 115.590939 17.746032 116.415675 18.044643 117.169312 18.442791 L 117.183532 18.442791 L 119.629299 19.665675 L 160.794974 40.525794 C 161.377976 40.810185 161.861442 41.179894 162.344907 41.606481 C 162.543981 41.762897 162.714616 41.947751 162.885251 42.146825 C 163.084325 42.345899 163.26918 42.573413 163.425595 42.800926 C 164.477844 44.151786 165.117725 45.801257 165.117725 47.592923 Z M 61.926257 47.009921 C 61.869378 46.953042 61.8125 46.881944 61.741402 46.839286 L 20.419312 25.922288 L 20.405093 25.922288 L 19.096892 25.253968 C 18.329034 24.85582 17.589616 24.685185 16.935516 24.685185 C 15.058532 24.685185 13.76455 26.135582 13.76455 28.595569 L 13.76455 121.662698 C 13.76455 124.151124 15.556217 127.108796 17.760251 128.217923 L 55.257275 147.201058 C 56.224206 147.684524 57.134259 147.926257 57.958995 147.926257 C 60.276786 147.926257 61.926257 146.091931 61.926257 143.034722 Z M 81.335979 69.846561 L 110.087963 126.170304 L 114.524471 118.875661 L 157.936839 47.450728 C 158.079034 47.208995 157.979497 46.910384 157.766204 46.739749 C 157.737765 46.725529 157.737765 46.68287 157.709325 46.668651 L 157.680886 46.654431 C 157.680886 46.654431 157.680886 46.640212 157.666667 46.640212 L 114.083664 24.571429 C 113.756614 24.415013 113.458003 24.315476 113.159392 24.244378 C 112.761243 24.130622 112.363095 24.073743 111.979167 24.073743 C 110.301257 24.073743 108.637566 24.926918 107.741733 26.405754 L 105.210648 30.55787 Z M 71.908399 106.874339 L 99.693452 120.9375 L 68.794312 60.418981 L 68.794312 105.281746 Z M 158.23545 60.191468 L 116.23082 129.312831 L 144.030093 143.375992 L 150.244048 146.532738 C 151.594907 147.215278 152.888889 147.542328 154.026455 147.542328 C 156.529101 147.542328 158.23545 145.907077 158.23545 143.034722 Z M 158.23545 60.191468 " transform="matrix(0.274709,0,0,0.274709,1.375,1.375)"/>
<path style=" stroke:none;fill-rule:nonzero;fill:rgb(100%,100%,100%);fill-opacity:1;" d="M 46.269531 13.132812 C 46.226562 13.070312 46.175781 13.007812 46.121094 12.953125 C 46.074219 12.898438 46.027344 12.847656 45.972656 12.804688 C 45.839844 12.6875 45.707031 12.585938 45.546875 12.507812 L 34.238281 6.777344 L 33.566406 6.441406 L 33.5625 6.441406 C 33.355469 6.332031 33.128906 6.25 32.898438 6.195312 C 32.648438 6.132812 32.390625 6.101562 32.136719 6.101562 C 31.003906 6.101562 29.9375 6.695312 29.355469 7.648438 L 27.6875 10.398438 L 22.710938 18.585938 L 20.027344 13.335938 C 19.820312 12.996094 19.53125 12.730469 19.191406 12.554688 L 7.839844 6.8125 C 7.839844 6.808594 7.835938 6.808594 7.832031 6.804688 L 7.472656 6.628906 C 7 6.386719 6.511719 6.265625 6.027344 6.265625 C 4.453125 6.265625 3.265625 7.539062 3.265625 9.230469 L 3.265625 34.796875 C 3.265625 36.191406 4.160156 37.65625 5.402344 38.285156 L 15.703125 43.496094 C 16.226562 43.761719 16.761719 43.898438 17.296875 43.898438 C 19.023438 43.898438 20.273438 42.542969 20.273438 40.667969 L 20.273438 32.417969 L 41.066406 42.953125 L 41.066406 42.945312 L 41.792969 43.3125 C 42.425781 43.632812 43.0625 43.796875 43.683594 43.796875 C 45.449219 43.796875 46.734375 42.480469 46.734375 40.667969 L 46.734375 14.449219 C 46.734375 13.957031 46.558594 13.503906 46.269531 13.132812 Z M 18.386719 40.667969 C 18.386719 41.507812 17.933594 42.011719 17.296875 42.011719 C 17.070312 42.011719 16.820312 41.945312 16.554688 41.8125 L 6.253906 36.597656 C 5.648438 36.292969 5.15625 35.480469 5.15625 34.796875 L 5.15625 9.230469 C 5.15625 8.554688 5.511719 8.15625 6.027344 8.15625 C 6.207031 8.15625 6.410156 8.203125 6.621094 8.3125 L 6.980469 8.496094 L 6.984375 8.496094 L 18.335938 14.242188 C 18.355469 14.253906 18.371094 14.273438 18.386719 14.289062 Z M 30.277344 9.769531 L 30.972656 8.628906 C 31.21875 8.222656 31.675781 7.988281 32.136719 7.988281 C 32.242188 7.988281 32.351562 8.003906 32.460938 8.035156 C 32.542969 8.054688 32.625 8.082031 32.714844 8.125 L 44.6875 14.1875 C 44.691406 14.1875 44.691406 14.191406 44.691406 14.191406 L 44.699219 14.195312 C 44.707031 14.199219 44.707031 14.210938 44.714844 14.214844 C 44.773438 14.261719 44.800781 14.34375 44.761719 14.410156 L 32.835938 34.03125 L 31.617188 36.035156 L 23.71875 20.5625 Z M 20.273438 30.296875 L 20.273438 17.972656 L 28.761719 34.597656 L 21.128906 30.734375 Z M 44.84375 40.667969 C 44.84375 41.457031 44.375 41.90625 43.6875 41.90625 C 43.375 41.90625 43.019531 41.816406 42.648438 41.628906 L 40.941406 40.761719 L 33.304688 36.898438 L 44.84375 17.910156 Z M 44.84375 40.667969 "/>
</g>
</svg>
